<svg xmlns="http://www.w3.org/2000/svg" width="400" height="121.14285714285714" viewBox="0, 0, 400,121.14285714285714"><path d="M33.237 0.161 C 32.710 0.689,33.314 1.964,34.821 3.504 L 35.616 4.317 35.052 4.240 C 33.627 4.046,30.943 3.767,30.492 3.766 C 29.253 3.763,29.592 5.581,31.037 6.683 C 31.356 6.927,31.537 7.125,31.439 7.124 C 31.341 7.123,30.389 7.063,29.324 6.990 C 27.097 6.838,27.025 6.862,27.025 7.761 C 27.025 8.498,27.324 9.156,27.966 9.831 L 28.454 10.344 27.168 10.382 C 25.885 10.420,25.882 10.421,25.841 10.780 C 25.777 11.332,26.288 12.182,27.020 12.740 C 27.793 13.328,27.840 13.445,27.303 13.445 C 25.723 13.445,25.951 14.994,27.633 15.686 C 28.356 15.983,28.350 15.925,27.757 16.936 C 26.637 18.847,26.652 19.161,27.963 21.139 C 30.196 24.508,33.684 27.215,37.108 28.235 C 37.626 28.389,38.050 28.540,38.050 28.570 C 38.050 28.599,37.721 29.247,37.318 30.009 C 34.943 34.505,34.929 39.757,37.285 42.568 C 38.932 44.534,38.994 44.372,34.977 48.596 C 34.040 49.581,32.492 50.608,31.483 50.914 C 30.612 51.177,30.354 51.334,30.473 51.528 C 30.602 51.735,31.752 51.552,32.702 51.172 C 33.167 50.987,33.452 50.908,33.336 50.997 C 33.221 51.087,32.852 51.386,32.517 51.663 C 31.653 52.376,30.346 53.025,29.210 53.303 C 28.283 53.530,27.949 53.815,28.406 53.990 C 29.043 54.234,32.051 53.263,33.208 52.439 C 33.700 52.088,33.748 52.097,33.748 52.529 C 33.748 52.908,34.241 54.050,34.405 54.050 C 34.457 54.050,34.499 53.521,34.498 52.874 C 34.495 51.163,35.120 50.070,37.580 47.484 C 38.776 46.227,38.872 46.182,40.881 45.922 C 46.916 45.141,50.008 43.974,53.283 41.243 C 54.285 40.406,53.922 40.486,52.482 41.419 C 47.194 44.845,41.761 45.554,39.304 43.140 C 36.110 40.003,35.840 35.443,38.528 30.068 C 39.536 28.053,39.508 27.711,38.314 27.441 C 35.279 26.755,32.598 25.012,30.329 22.252 C 27.949 19.357,27.909 19.214,28.916 17.260 L 29.634 15.868 29.362 15.497 C 29.212 15.293,28.836 15.010,28.528 14.868 C 27.772 14.520,27.817 14.434,28.813 14.327 C 30.132 14.186,30.855 13.545,30.118 13.171 C 30.007 13.114,29.523 12.884,29.042 12.658 C 28.561 12.433,27.956 12.066,27.697 11.844 L 27.227 11.440 29.004 11.434 C 31.356 11.427,31.721 11.027,30.204 10.119 C 29.437 9.660,28.483 8.799,28.241 8.346 C 28.055 7.999,28.171 7.997,32.268 8.262 C 35.324 8.459,35.496 8.438,35.496 7.866 C 35.496 7.478,35.350 7.373,34.286 6.991 C 32.548 6.368,30.623 5.167,30.952 4.911 C 30.974 4.894,32.232 5.020,33.748 5.191 C 38.246 5.697,39.018 5.504,37.412 4.271 C 36.591 3.641,34.882 1.913,34.982 1.814 C 35.023 1.772,35.378 1.864,35.770 2.019 C 36.924 2.474,40.050 3.320,42.947 3.962 C 45.605 4.551,47.771 4.961,56.792 6.586 C 67.637 8.539,71.693 9.760,72.815 11.412 C 73.437 12.327,73.025 13.369,71.149 15.634 C 66.480 21.272,66.369 21.808,68.256 29.506 C 69.328 33.880,69.435 33.619,65.291 36.732 C 63.784 37.864,62.630 38.808,62.726 38.831 C 63.018 38.900,64.526 38.075,65.913 37.090 C 71.721 32.961,74.777 33.547,80.823 39.945 C 84.803 44.158,86.695 44.779,91.675 43.504 C 93.664 42.994,93.507 42.898,91.227 43.229 C 85.863 44.006,82.618 42.020,83.644 38.588 C 84.629 35.291,94.846 32.584,99.227 34.459 L 99.697 34.660 98.936 34.590 C 97.630 34.469,97.076 34.759,97.076 35.563 C 97.076 36.319,97.317 36.437,98.867 36.437 C 99.985 36.438,100.314 36.486,100.664 36.699 C 101.485 37.200,101.551 37.851,100.794 37.982 C 99.445 38.215,94.283 39.020,92.504 39.275 C 89.779 39.665,89.764 39.745,92.396 39.838 C 96.451 39.982,98.410 40.657,99.021 42.121 C 101.116 47.136,94.750 49.718,82.555 48.800 C 75.936 48.302,75.315 48.369,64.961 50.708 C 62.346 51.298,60.185 51.760,60.159 51.733 C 60.133 51.707,60.442 51.428,60.846 51.112 C 61.286 50.768,61.580 50.434,61.580 50.278 C 61.580 49.971,61.279 49.933,61.049 50.211 C 59.011 52.666,49.881 56.167,46.387 55.832 L 45.244 55.723 46.315 55.014 C 47.366 54.317,48.953 53.501,49.882 53.178 C 50.406 52.997,50.610 52.571,50.174 52.571 C 49.213 52.571,45.591 54.184,44.217 55.223 C 43.486 55.777,43.127 55.935,41.748 56.313 C 39.102 57.037,35.398 58.675,32.874 60.237 C 32.352 60.559,31.463 60.953,30.878 61.120 C 29.840 61.415,29.803 61.441,28.667 62.658 C 26.498 64.983,10.761 78.631,9.750 79.064 C 9.379 79.223,8.664 79.321,7.462 79.377 L 5.714 79.458 6.723 79.034 C 7.656 78.642,7.876 78.462,9.681 76.620 C 12.351 73.894,26.889 61.791,27.989 61.378 C 28.514 61.181,28.994 60.828,29.782 60.058 C 31.845 58.041,36.418 55.654,39.742 54.860 C 44.283 53.774,46.407 52.913,49.681 50.826 C 50.494 50.307,51.250 49.826,51.361 49.757 C 51.907 49.414,51.244 49.309,50.664 49.646 C 46.349 52.155,39.749 54.195,38.851 53.297 L 38.570 53.017 38.905 52.626 C 39.089 52.411,39.937 51.661,40.789 50.958 C 42.209 49.786,42.662 49.210,42.162 49.210 C 42.056 49.210,39.137 51.185,35.674 53.599 C 30.916 56.916,29.198 58.043,28.639 58.216 C 27.498 58.568,27.101 58.823,26.468 59.613 C 25.752 60.505,8.038 75.704,7.239 76.112 C 6.764 76.354,6.372 76.413,4.914 76.461 C 2.745 76.533,2.555 76.570,2.555 76.910 C 2.555 77.160,2.649 77.176,4.093 77.176 C 4.939 77.176,5.661 77.225,5.697 77.284 C 5.867 77.559,5.418 77.720,3.295 78.144 C 1.408 78.520,1.002 78.642,0.963 78.844 C 0.873 79.308,1.154 79.311,3.294 78.863 C 6.577 78.177,6.495 78.311,2.756 79.740 C 0.414 80.635,0.008 80.836,0.002 81.100 C -0.005 81.434,0.748 81.271,2.880 80.477 C 5.614 79.457,5.328 79.526,5.418 79.871 C 5.487 80.132,5.555 80.140,6.913 80.052 C 8.276 79.964,8.336 79.972,8.336 80.229 C 8.336 80.468,8.092 80.546,6.085 80.954 C 4.322 81.312,3.825 81.460,3.792 81.636 C 3.716 82.036,4.226 82.030,6.248 81.610 C 9.195 80.997,9.045 81.154,5.345 82.557 C 3.611 83.215,3.092 83.466,3.092 83.647 C 3.092 84.087,3.359 84.051,5.211 83.363 C 10.463 81.409,10.175 81.551,11.294 80.354 C 13.605 77.881,14.285 77.286,27.697 65.990 C 28.728 65.122,29.586 64.508,29.916 64.403 C 31.095 64.028,31.649 63.641,32.202 62.805 L 32.739 61.992 35.496 60.587 C 40.355 58.109,44.286 56.874,47.308 56.874 C 49.521 56.874,52.113 56.100,55.387 54.461 C 56.164 54.072,61.491 52.709,65.681 51.826 C 77.115 49.418,77.357 49.388,81.479 49.831 C 92.658 51.033,100.587 48.669,100.567 44.139 C 100.554 41.413,100.001 40.641,97.408 39.735 L 96.578 39.445 107.953 37.724 C 120.132 35.882,119.798 35.948,119.798 35.373 C 119.798 34.588,119.093 34.533,108.773 34.505 L 101.983 34.487 100.189 33.915 C 97.050 32.914,95.078 32.867,91.294 33.702 C 85.583 34.963,82.420 36.983,82.420 39.370 C 82.420 39.653,82.193 39.481,80.840 38.170 C 76.654 34.112,75.230 33.267,71.912 32.870 C 70.023 32.644,68.271 28.226,68.261 23.664 C 68.257 21.328,68.481 20.964,72.352 16.999 C 75.827 13.439,76.119 12.782,75.108 10.788 C 73.554 7.721,70.506 6.843,50.958 3.834 C 43.055 2.617,37.845 1.487,35.133 0.401 C 34.063 -0.027,33.497 -0.099,33.237 0.161 M116.540 35.317 C 117.300 35.363,117.900 35.423,117.874 35.449 C 117.808 35.514,103.207 36.574,102.532 36.562 L 101.983 36.552 102.702 36.297 C 105.740 35.217,110.000 34.916,116.540 35.317 M112.101 36.395 C 111.971 36.429,111.760 36.429,111.630 36.395 C 111.501 36.361,111.607 36.334,111.866 36.334 C 112.124 36.334,112.230 36.361,112.101 36.395 M110.924 36.527 C 110.739 36.557,108.834 36.824,106.689 37.121 C 104.545 37.418,102.684 37.692,102.555 37.730 C 102.377 37.783,102.319 37.721,102.319 37.480 L 102.319 37.161 106.118 36.817 C 109.435 36.518,111.930 36.367,110.924 36.527 M79.850 50.756 C 79.112 51.949,79.351 56.548,80.261 58.671 C 80.694 59.680,81.736 60.322,85.295 61.769 C 88.607 63.115,89.079 63.683,87.977 64.993 C 86.689 66.524,83.373 68.577,73.950 73.679 C 65.741 78.123,62.260 80.155,59.506 82.109 L 58.440 82.864 58.950 81.936 C 59.230 81.426,59.634 80.788,59.848 80.518 C 60.966 79.105,60.133 79.151,56.883 80.682 C 55.459 81.352,54.269 81.876,54.238 81.846 C 54.086 81.694,54.927 80.770,56.004 79.905 C 57.215 78.933,57.545 78.388,56.988 78.280 C 56.865 78.257,55.457 78.794,53.858 79.474 C 52.259 80.154,50.917 80.676,50.876 80.635 C 50.737 80.496,51.257 79.593,51.860 78.921 C 52.944 77.716,52.473 77.448,50.547 78.174 C 48.968 78.768,48.935 78.722,50.124 77.579 C 51.598 76.162,51.107 75.702,48.945 76.475 C 48.832 76.515,48.970 76.320,49.251 76.042 C 49.952 75.348,49.883 75.093,48.807 74.390 C 47.518 73.548,47.440 73.301,47.994 71.833 C 49.222 68.583,51.017 66.348,53.735 64.686 C 54.838 64.011,54.813 63.636,53.623 62.996 C 51.189 61.685,49.517 59.996,48.672 57.993 C 48.204 56.884,48.087 56.789,48.206 57.613 C 48.509 59.717,50.120 61.915,52.345 63.261 C 53.422 63.912,53.414 63.849,52.495 64.459 C 49.448 66.482,46.394 71.137,46.548 73.523 C 46.586 74.116,47.544 75.030,48.440 75.329 C 48.507 75.351,48.280 75.651,47.936 75.995 C 47.010 76.921,47.070 77.521,48.085 77.495 L 48.775 77.478 48.394 78.100 C 47.292 79.901,47.706 80.150,50.257 79.223 C 50.361 79.186,50.311 79.362,50.135 79.661 C 49.796 80.236,49.726 81.196,50.000 81.525 C 50.278 81.861,50.657 81.800,52.044 81.196 C 52.741 80.893,53.451 80.590,53.623 80.524 L 53.935 80.403 53.647 80.807 C 53.225 81.400,53.084 82.004,53.250 82.508 C 53.505 83.280,53.462 83.288,56.481 81.846 L 58.307 80.974 57.787 82.000 C 56.483 84.568,57.182 85.163,59.480 83.439 C 61.969 81.571,65.483 79.584,74.950 74.689 C 88.212 67.833,90.617 66.120,90.620 63.529 C 90.622 62.195,89.959 61.669,87.323 60.913 C 80.845 59.055,80.227 58.362,80.012 52.706 C 79.968 51.560,79.895 50.682,79.850 50.756 M105.853 52.836 C 104.897 53.419,104.058 55.433,89.840 91.294 C 80.781 114.142,79.404 116.355,73.515 117.513 C 72.295 117.753,71.809 118.724,72.480 119.579 L 72.759 119.933 82.549 119.933 C 93.497 119.933,92.831 119.993,92.992 118.984 C 93.128 118.133,92.631 117.724,91.220 117.527 C 85.939 116.788,84.849 113.912,87.322 107.236 C 89.548 101.226,92.529 93.756,92.784 93.546 C 93.053 93.326,93.817 93.311,104.538 93.311 C 115.265 93.311,116.021 93.326,116.276 93.546 C 116.575 93.805,121.686 107.185,122.272 109.244 C 123.913 115.006,123.282 116.381,118.588 117.266 C 116.296 117.699,116.183 117.740,115.943 118.245 C 115.695 118.764,115.777 119.273,116.171 119.667 C 116.473 119.969,139.947 120.096,140.502 119.799 C 141.098 119.480,141.110 118.191,140.520 117.823 C 140.384 117.737,139.704 117.571,139.010 117.453 C 133.943 116.589,132.643 114.857,127.673 102.351 C 125.525 96.946,117.949 77.245,112.722 63.472 C 108.403 52.092,108.648 52.571,107.147 52.572 C 106.528 52.572,106.164 52.647,105.853 52.836 M215.328 54.539 C 210.197 56.029,209.882 56.168,209.882 56.939 C 209.882 57.512,210.316 57.745,212.263 58.222 C 213.372 58.493,214.046 59.379,214.394 61.023 C 214.591 61.952,214.695 82.793,214.505 83.288 C 214.235 83.991,213.777 83.944,211.946 83.023 C 196.230 75.118,178.083 91.476,183.731 108.457 C 187.757 120.558,202.334 125.018,212.904 117.383 C 214.501 116.229,214.992 116.533,214.992 118.680 C 214.992 121.180,214.869 121.165,221.123 119.477 C 226.202 118.106,226.286 118.068,226.286 117.155 C 226.286 116.378,225.812 116.034,224.740 116.034 C 223.595 116.034,222.912 115.697,222.391 114.876 C 221.604 113.634,221.643 115.424,221.690 83.331 L 221.733 53.788 221.393 53.448 C 220.893 52.948,220.670 52.988,215.328 54.539 M276.998 54.509 C 272.033 55.956,271.808 56.054,271.652 56.833 C 271.542 57.381,272.025 57.707,273.405 58.021 C 274.598 58.293,275.140 58.628,275.568 59.358 C 276.330 60.658,276.298 59.246,276.300 91.135 C 276.302 109.912,276.350 120.576,276.433 120.733 C 276.694 121.220,277.160 121.174,278.885 120.491 C 281.785 119.344,282.263 119.309,285.641 119.995 C 290.671 121.017,292.818 121.235,295.657 121.009 C 307.029 120.107,314.142 112.166,314.142 100.370 C 314.142 89.221,307.865 81.906,297.589 81.079 C 292.638 80.681,288.749 82.057,284.706 85.640 L 283.496 86.712 283.429 70.235 L 283.361 53.758 282.984 53.434 C 282.426 52.953,282.199 52.994,276.998 54.509 M105.247 63.227 C 105.555 63.606,114.829 89.047,114.750 89.297 C 114.486 90.129,115.069 90.084,104.506 90.084 L 94.912 90.084 94.582 89.754 C 94.074 89.246,94.017 89.418,98.135 79.069 C 100.271 73.702,102.519 68.010,103.131 66.420 C 104.426 63.058,104.733 62.595,105.247 63.227 M361.866 81.475 C 356.503 82.903,356.571 82.872,356.571 83.875 C 356.571 84.617,356.939 84.875,358.130 84.969 C 359.807 85.101,360.369 85.545,360.923 87.172 C 361.256 88.149,361.433 107.127,361.154 111.933 C 360.863 116.936,360.176 117.823,356.237 118.278 C 355.178 118.400,354.898 118.720,355.171 119.496 L 355.301 119.866 364.709 119.900 C 375.085 119.939,374.454 119.989,374.454 119.126 C 374.454 118.478,374.213 118.336,372.851 118.184 C 370.083 117.875,369.064 116.809,368.590 113.728 C 368.205 111.228,368.238 93.050,368.629 91.678 C 369.858 87.375,373.353 84.642,377.613 84.655 C 382.955 84.671,386.215 87.426,387.320 92.857 C 387.643 94.445,387.693 112.299,387.379 114.017 C 386.853 116.893,385.854 117.898,383.221 118.197 C 381.836 118.354,381.821 118.366,381.874 119.208 L 381.916 119.866 390.854 119.866 L 399.792 119.866 399.922 119.496 C 400.172 118.785,399.899 118.402,399.056 118.280 C 394.772 117.662,394.762 117.628,394.758 103.462 C 394.754 90.423,394.458 88.530,391.932 85.415 C 387.562 80.024,377.320 79.612,369.710 84.521 C 368.020 85.611,367.731 85.360,367.731 82.797 C 367.731 79.773,368.015 79.837,361.866 81.475 M334.745 81.088 C 322.518 82.096,314.954 93.267,317.736 106.211 C 321.177 122.221,342.555 126.575,352.300 113.251 C 357.174 106.586,357.079 95.302,352.092 88.555 C 348.628 83.869,341.689 80.539,336.269 80.963 C 336.158 80.972,335.472 81.028,334.745 81.088 M143.261 81.419 C 140.746 81.589,138.492 81.732,138.252 81.738 C 137.678 81.751,137.277 82.161,137.277 82.735 C 137.277 83.327,137.560 83.559,138.612 83.830 C 142.544 84.845,142.892 86.204,143.002 100.975 C 143.082 111.836,143.191 113.072,144.275 115.463 C 147.505 122.587,159.784 123.205,168.056 116.660 C 169.840 115.248,170.218 115.475,170.218 117.958 C 170.218 120.518,169.821 120.462,176.107 118.793 C 181.247 117.429,181.378 117.373,181.378 116.548 C 181.378 115.569,181.069 115.366,179.572 115.363 C 177.657 115.360,176.892 114.823,176.315 113.076 C 176.086 112.381,176.069 111.394,176.031 96.908 L 175.991 81.480 175.657 81.260 C 175.345 81.056,174.917 81.066,169.577 81.397 L 163.832 81.754 163.529 82.095 C 162.813 82.901,163.203 83.421,164.846 83.847 C 168.078 84.686,168.978 85.869,169.406 89.843 C 169.649 92.108,169.591 107.358,169.333 108.611 C 167.328 118.367,153.930 120.962,150.842 112.193 C 150.108 110.108,150.137 110.741,150.090 95.597 L 150.046 81.546 149.764 81.311 C 149.412 81.017,149.165 81.021,143.261 81.419 M232.948 81.435 C 227.811 81.771,227.710 81.789,227.476 82.406 C 227.240 83.027,227.560 83.469,228.420 83.708 C 230.478 84.278,231.254 84.791,231.893 86.007 C 232.923 87.964,233.019 89.097,233.143 100.840 C 233.264 112.369,233.312 112.911,234.438 115.457 C 237.600 122.605,250.115 123.202,258.306 116.594 C 259.995 115.232,260.347 115.465,260.414 117.997 C 260.482 120.530,259.995 120.465,266.307 118.783 C 271.538 117.389,271.462 117.423,271.462 116.432 C 271.462 115.552,271.243 115.399,269.894 115.341 C 268.283 115.271,267.555 114.630,267.099 112.879 C 266.917 112.178,266.891 110.182,266.891 96.920 L 266.891 81.763 266.576 81.397 L 266.261 81.031 261.231 81.325 C 253.022 81.806,253.445 81.729,253.445 82.735 C 253.445 83.347,253.732 83.556,254.930 83.818 C 257.730 84.430,258.849 85.626,259.447 88.646 C 259.787 90.366,259.884 106.608,259.564 108.321 C 257.724 118.175,244.525 121.094,241.103 112.403 C 240.318 110.410,240.355 111.151,240.275 95.687 C 240.203 81.801,240.195 81.453,239.941 81.266 C 239.605 81.021,239.076 81.034,232.948 81.435 M206.992 83.426 C 211.339 84.339,213.648 87.299,214.373 92.889 C 214.626 94.836,214.694 110.330,214.455 111.588 C 213.810 114.990,207.110 118.931,202.655 118.530 C 193.843 117.737,188.381 107.275,190.657 95.547 C 192.390 86.613,198.958 81.740,206.992 83.426 M339.614 83.499 C 345.493 84.907,348.149 90.338,348.163 100.975 C 348.177 112.272,345.211 117.794,338.592 118.792 C 328.839 120.262,323.716 112.234,324.962 97.431 C 325.882 86.495,331.162 81.474,339.614 83.499 M297.113 85.078 C 303.167 87.062,306.369 93.619,306.115 103.510 C 305.856 113.608,301.846 118.870,294.387 118.902 C 288.985 118.925,285.158 116.207,283.803 111.387 C 283.390 109.918,283.246 90.971,283.639 89.788 C 284.192 88.124,287.749 85.757,290.990 84.898 C 292.814 84.415,295.313 84.488,297.113 85.078 " fill="#fff"></path></svg>
