<svg id="Layer_1" data-name="Layer 1" xmlns="http://www.w3.org/2000/svg" viewBox="0 0 48 48"><defs><style>.cls-1{fill:#ef5e51;}</style></defs><title>0820-firerisk</title><path class="cls-1" d="M24,0A24,24,0,1,0,48,24,24,24,0,0,0,24,0ZM37.44,29.77a14,14,0,0,1-13.54,12,13.85,13.85,0,0,1-12.62-7.91A10,10,0,0,1,10.5,28a34.79,34.79,0,0,0,.77-4,10.81,10.81,0,0,0-.72-4,7.32,7.32,0,0,1,4.71,4.77c.12.46.25.92.38,1.38a.27.27,0,0,0,.52-.07c0-1.16,0-2.33.13-3.48a18.14,18.14,0,0,1,3-9.39,14.46,14.46,0,0,1,6.7-4.79,16,16,0,0,1,4.12-1,9.17,9.17,0,0,0-1.21,5.08c.09,3.32,1.26,6.47,1.5,9.76a28.2,28.2,0,0,1,0,3.95.27.27,0,0,0,.51.15c.18-.32.36-.61.47-.86,1-2.2,2.41-4.76,2.63-7.22C33.92,18.17,38.67,22.15,37.44,29.77Z"/></svg>