<svg id="Layer_1" data-name="Layer 1" xmlns="http://www.w3.org/2000/svg" viewBox="0 0 48 48"><defs><style>.cls-1{fill:#f8b832;}</style></defs><title>0820-heatwave</title><path class="cls-1" d="M24,0A24,24,0,1,0,48,24,24,24,0,0,0,24,0ZM34.35,31.62a12.92,12.92,0,0,1-2,2.15l2.94,6.82L30,35.36a12.76,12.76,0,0,1-2.74,1.07L27,43.84l-2.47-7H24a12.91,12.91,0,0,1-2.44-.23l-3.5,6.55.81-7.38a12.84,12.84,0,0,1-2.55-1.47l-6,4.38,3.93-6.3A12.87,12.87,0,0,1,12.62,30l-7.3,1.34,6.27-4a12.84,12.84,0,0,1-.43-2.91L4,22.48l7.37-.85a12.75,12.75,0,0,1,.87-2.81l-5.6-4.87,7,2.43a12.92,12.92,0,0,1,2-2.15L12.72,7.41,18,12.64a12.76,12.76,0,0,1,2.74-1.07L21,4.16l2.47,7H24a12.91,12.91,0,0,1,2.44.23l3.5-6.55-.81,7.38a12.84,12.84,0,0,1,2.55,1.47l6-4.38-3.93,6.3A12.88,12.88,0,0,1,35.38,18l7.3-1.34-6.27,4a12.84,12.84,0,0,1,.43,2.91l7.16,2-7.37.85a12.75,12.75,0,0,1-.87,2.81l5.6,4.87Z"/></svg>